<svg xmlns="http://www.w3.org/2000/svg" viewBox="0 0 32 32" fill="none">
  <rect width="32" height="32" rx="8" fill="#5B5BD6"/>
  <path
    d="M16 7c-4.97 0-9 4.03-9 9 0 2.21.8 4.24 2.12 5.8"
    stroke="#fff"
    stroke-width="1.75"
    stroke-linecap="round"
  />
  <path
    d="M16 7c4.97 0 9 4.03 9 9 0 2.21-.8 4.24-2.12 5.8"
    stroke="#fff"
    stroke-width="1.75"
    stroke-linecap="round"
  />
  <circle cx="16" cy="16" r="2.25" fill="#fff"/>
  <circle cx="11" cy="13" r="1.25" fill="#fff" opacity="0.9"/>
  <circle cx="21" cy="13" r="1.25" fill="#fff" opacity="0.9"/>
  <circle cx="13" cy="20" r="1.25" fill="#fff" opacity="0.75"/>
  <circle cx="19" cy="20" r="1.25" fill="#fff" opacity="0.75"/>
  <path
    d="M11 13h2M19 13h-2M13 20l1.5-2M19 20l-1.5-2"
    stroke="#fff"
    stroke-width="1.25"
    stroke-linecap="round"
    opacity="0.85"
  />
</svg>
